<mxfile host="app.diagrams.net" modified="2024-01-16T21:29:27.490Z" agent="Mozilla/5.0 (Windows NT 10.0; Win64; x64) AppleWebKit/537.36 (KHTML, like Gecko) Chrome/120.0.0.0 Safari/537.36 OPR/106.0.0.0" etag="DBL8wbhE6vN0orY4lBSr" version="22.1.19" type="google">
  <diagram name="PÃ¡gina-1" id="fcCbvwogTk_A2QuIpjVF">
    <mxGraphModel grid="1" page="1" gridSize="11" guides="1" tooltips="1" connect="1" arrows="1" fold="1" pageScale="1" pageWidth="827" pageHeight="1169" background="#E1D5E7" math="0" shadow="1">
      <root>
        <mxCell id="0" />
        <mxCell id="1" parent="0" />
        <mxCell id="8fF_HV5B68X6iF56gYJh-1" value="Carro" style="swimlane;fontStyle=1;align=center;verticalAlign=top;childLayout=stackLayout;horizontal=1;startSize=26;horizontalStack=0;resizeParent=1;resizeParentMax=0;resizeLast=0;collapsible=1;marginBottom=0;whiteSpace=wrap;html=1;" vertex="1" parent="1">
          <mxGeometry x="334" y="50" width="170" height="280" as="geometry">
            <mxRectangle x="334" y="50" width="70" height="30" as="alternateBounds" />
          </mxGeometry>
        </mxCell>
        <mxCell id="8fF_HV5B68X6iF56gYJh-2" value="-rueda: int&lt;br&gt;-ventana: int&lt;br&gt;-marca: String&amp;nbsp;&lt;br&gt;+nombre: String&amp;nbsp;" style="text;strokeColor=none;fillColor=none;align=left;verticalAlign=top;spacingLeft=4;spacingRight=4;overflow=hidden;rotatable=0;points=[[0,0.5],[1,0.5]];portConstraint=eastwest;whiteSpace=wrap;html=1;" vertex="1" parent="8fF_HV5B68X6iF56gYJh-1">
          <mxGeometry y="26" width="170" height="74" as="geometry" />
        </mxCell>
        <mxCell id="8fF_HV5B68X6iF56gYJh-3" value="" style="line;strokeWidth=1;fillColor=none;align=left;verticalAlign=middle;spacingTop=-1;spacingLeft=3;spacingRight=3;rotatable=0;labelPosition=right;points=[];portConstraint=eastwest;strokeColor=inherit;" vertex="1" parent="8fF_HV5B68X6iF56gYJh-1">
          <mxGeometry y="100" width="170" height="30" as="geometry" />
        </mxCell>
        <mxCell id="8fF_HV5B68X6iF56gYJh-4" value="+getRueda(): int&lt;br&gt;+setRueda(rueda:int)&lt;br&gt;+getVentana(): int&amp;nbsp;&lt;br&gt;+setVentana(ventana: int)&lt;br&gt;+getMarca(): String&lt;br&gt;+setMarcar(marca: String)&lt;br&gt;+getNombre(): String&lt;br&gt;+setNombre(nombre: String)" style="text;strokeColor=none;fillColor=none;align=left;verticalAlign=top;spacingLeft=4;spacingRight=4;overflow=hidden;rotatable=0;points=[[0,0.5],[1,0.5]];portConstraint=eastwest;whiteSpace=wrap;html=1;" vertex="1" parent="8fF_HV5B68X6iF56gYJh-1">
          <mxGeometry y="130" width="170" height="150" as="geometry" />
        </mxCell>
        <mxCell id="8fF_HV5B68X6iF56gYJh-5" value="Actor" style="shape=umlActor;verticalLabelPosition=bottom;verticalAlign=top;html=1;" vertex="1" parent="1">
          <mxGeometry x="364" y="385" width="110" height="170" as="geometry" />
        </mxCell>
      </root>
    </mxGraphModel>
  </diagram>
</mxfile>
